<?xml version="1.0" encoding="UTF-8"?>
<svg width="1229px" height="240px" viewBox="0 0 1229 240" version="1.1" xmlns="http://www.w3.org/2000/svg" xmlns:xlink="http://www.w3.org/1999/xlink">
    <!-- Generator: Sketch 54.1 (76490) - https://sketchapp.com -->
    <title>capacitype-recovery-resource-hub</title>
    <desc>Created with Sketch.</desc>
    <g id="Page-1" stroke="none" stroke-width="1" fill="none" fill-rule="evenodd">
        <g id="capacitype-logo--tagline" transform="translate(326.640000, 163.046000)" fill="#FFFFFF" fill-rule="nonzero">
            <path d="M875.65,0.664 C880.851359,0.664 884.904485,1.7844888 887.8095,4.0255 C890.714515,6.2665112 892.167,9.54497842 892.167,13.861 C892.167,17.0703494 891.267842,19.5741577 889.4695,21.3725 C887.671158,23.1708423 885.416347,24.4296631 882.705,25.149 C884.254341,25.4256681 885.692993,25.9098299 887.021,26.6015 C888.349007,27.2931701 889.510995,28.1923278 890.507,29.299 C891.503005,30.4056722 892.291497,31.7198257 892.8725,33.2415 C893.453503,34.7631743 893.744,36.4646573 893.744,38.346 C893.744,40.5040108 893.287505,42.4821577 892.3745,44.2805 C891.461495,46.0788423 890.175008,47.614327 888.515,48.887 C886.854992,50.159673 884.863012,51.1556631 882.539,51.875 C880.214988,52.5943369 877.669681,52.954 874.903,52.954 L861.623,52.954 L861.623,0.664 L875.65,0.664 Z M867.599,23.074 L873.907,23.074 C875.456341,23.074 876.964159,22.935668 878.4305,22.659 C879.896841,22.382332 881.197161,21.9120033 882.3315,21.248 C883.465839,20.5839967 884.364997,19.684839 885.029,18.5505 C885.693003,17.416161 886.025,15.9913419 886.025,14.276 C886.025,11.1773178 884.959844,8.93634025 882.8295,7.553 C880.699156,6.16965975 877.918684,5.478 874.488,5.478 L867.599,5.478 L867.599,23.074 Z M867.599,48.14 L874.073,48.14 C875.899009,48.14 877.614325,47.9601685 879.219,47.6005 C880.823675,47.2408315 882.234661,46.6460042 883.452,45.816 C884.669339,44.9859958 885.637663,43.8931734 886.357,42.5375 C887.076337,41.1818266 887.436,39.5356764 887.436,37.599 C887.436,35.7176573 887.048671,34.1545062 886.274,32.9095 C885.499329,31.6644938 884.46184,30.6685037 883.1615,29.9215 C881.86116,29.1744963 880.367175,28.6350017 878.6795,28.303 C876.991825,27.9709983 875.262676,27.805 873.492,27.805 L867.599,27.805 L867.599,48.14 Z" id="Shape"></path>
            <path d="M809.25,0.664 L815.226,0.664 L815.226,31.955 C815.226,38.0416971 816.346489,42.3714871 818.5875,44.9445 C820.828511,47.5175129 824.383642,48.804 829.253,48.804 C831.632345,48.804 833.679658,48.4166705 835.395,47.642 C837.110342,46.8673295 838.507495,45.7883402 839.5865,44.405 C840.665505,43.0216597 841.467831,41.3616764 841.9935,39.425 C842.519169,37.4883237 842.782,35.3303452 842.782,32.951 L842.782,0.664 L848.758,0.664 L848.758,32.702 C848.758,39.8953693 847.056517,45.193483 843.6535,48.5965 C840.250483,51.999517 835.450364,53.701 829.253,53.701 C823.000302,53.701 818.103351,51.999517 814.562,48.5965 C811.020649,45.193483 809.25,39.7570374 809.25,32.287 L809.25,0.664 Z" id="Path"></path>
            <polygon id="Path" points="758.039 52.954 758.039 0.664 764.015 0.664 764.015 23.406 790.492 23.406 790.492 0.664 796.468 0.664 796.468 52.954 790.492 52.954 790.492 28.386 764.015 28.386 764.015 52.954"></polygon>
            <polygon id="Path" points="699.026 0.664 729.736 0.664 729.736 5.561 705.002 5.561 705.002 23.489 727.578 23.489 727.578 28.386 705.002 28.386 705.002 48.057 729.985 48.057 729.985 52.954 699.026 52.954"></polygon>
            <path d="M676.118,48.804 C678.829347,48.804 681.084158,48.5550025 682.8825,48.057 C684.680842,47.5589975 686.382325,46.9226705 687.987,46.148 L689.398,50.962 C687.571991,51.8473378 685.566178,52.5251643 683.3805,52.9955 C681.194822,53.4658357 678.525016,53.701 675.371,53.701 C671.940316,53.701 668.717182,53.1200058 665.7015,51.958 C662.685818,50.7959942 660.057511,49.080678 657.8165,46.812 C655.575489,44.543322 653.80484,41.7490166 652.5045,38.429 C651.20416,35.1089834 650.554,31.2633552 650.554,26.892 C650.554,22.631312 651.176494,18.8271834 652.4215,15.4795 C653.666506,12.1318166 655.409489,9.30984482 657.6505,7.0135 C659.891511,4.71715519 662.533651,2.97417262 665.577,1.7845 C668.620349,0.594827385 671.940315,0 675.537,0 C678.801683,0 681.512989,0.262830705 683.671,0.7885 C685.829011,1.31416929 687.820991,2.04732863 689.647,2.988 L688.236,7.636 C686.299324,6.69532863 684.431842,6.00366888 682.6335,5.561 C680.835158,5.11833112 678.774012,4.897 676.45,4.897 C673.84932,4.897 671.373178,5.31199585 669.0215,6.142 C666.669822,6.97200415 664.608676,8.27232448 662.838,10.043 C661.067324,11.8136755 659.642505,14.0961527 658.5635,16.8905 C657.484495,19.6848473 656.945,23.0463137 656.945,26.975 C656.945,31.0143535 657.484495,34.4173195 658.5635,37.184 C659.642505,39.9506805 661.081158,42.1916581 662.8795,43.907 C664.677842,45.6223419 666.725155,46.8673295 669.0215,47.642 C671.317845,48.4166705 673.683321,48.804 676.118,48.804 Z" id="Path"></path>
            <path d="M610.05,0.664 L626.152,0.664 C628.863347,0.664 631.25649,1.03749627 633.3315,1.7845 C635.40651,2.53150373 637.13566,3.56899336 638.519,4.897 C639.90234,6.22500664 640.953663,7.81582407 641.673,9.6695 C642.392337,11.5231759 642.752,13.5566556 642.752,15.77 C642.752,17.76201 642.44767,19.5741585 641.839,21.2065 C641.23033,22.8388415 640.414172,24.2636606 639.3905,25.481 C638.366828,26.6983394 637.191007,27.7219958 635.863,28.552 C634.534993,29.3820041 633.151674,30.0459975 631.713,30.544 L645.906,52.954 L639.1,52.954 L626.152,31.623 L615.611,31.623 L615.611,52.954 L610.05,52.954 L610.05,0.664 Z M615.611,26.809 L623.579,26.809 C625.405009,26.809 627.106492,26.6015021 628.6835,26.1865 C630.260508,25.7714979 631.629994,25.1213378 632.792,24.236 C633.954006,23.3506622 634.866997,22.2301734 635.531,20.8745 C636.195003,19.5188266 636.527,17.9003427 636.527,16.019 C636.527,12.3669817 635.48951,9.69717511 633.4145,8.0095 C631.33949,6.3218249 628.282354,5.478 624.243,5.478 L615.611,5.478 L615.611,26.809 Z" id="Shape"></path>
            <path d="M557.677,0.664 L563.653,0.664 L563.653,31.955 C563.653,38.0416971 564.773489,42.3714871 567.0145,44.9445 C569.255511,47.5175129 572.810642,48.804 577.68,48.804 C580.059345,48.804 582.106658,48.4166705 583.822,47.642 C585.537342,46.8673295 586.934495,45.7883402 588.0135,44.405 C589.092505,43.0216597 589.894831,41.3616764 590.4205,39.425 C590.946169,37.4883237 591.209,35.3303452 591.209,32.951 L591.209,0.664 L597.185,0.664 L597.185,32.702 C597.185,39.8953693 595.483517,45.193483 592.0805,48.5965 C588.677483,51.999517 583.877364,53.701 577.68,53.701 C571.427302,53.701 566.530351,51.999517 562.989,48.5965 C559.447649,45.193483 557.677,39.7570374 557.677,32.287 L557.677,0.664 Z" id="Path"></path>
            <path d="M523.979,2.48689958e-14 C527.299017,2.48689958e-14 530.411485,0.5533278 533.3165,1.66 C536.221515,2.7666722 538.725323,4.4404888 540.828,6.6815 C542.930677,8.9225112 544.590661,11.7168166 545.808,15.0645 C547.025339,18.4121834 547.634,22.3269776 547.634,26.809 C547.634,31.1803552 547.011506,35.0398166 545.7665,38.3875 C544.521494,41.7351834 542.820011,44.543322 540.662,46.812 C538.503989,49.080678 535.958681,50.7959942 533.026,51.958 C530.093319,53.1200058 526.967017,53.701 523.647,53.701 C520.326983,53.701 517.214515,53.133839 514.3095,51.9995 C511.404485,50.865161 508.900677,49.1775112 506.798,46.9365 C504.695323,44.6954888 503.035339,41.9011834 501.818,38.5535 C500.600661,35.2058166 499.992,31.2910224 499.992,26.809 C499.992,22.4376448 500.614494,18.5920166 501.8595,15.272 C503.104506,11.9519834 504.805989,9.15767801 506.964,6.889 C509.122011,4.62032199 511.653485,2.90500581 514.5585,1.743 C517.463515,0.58099419 520.60365,2.48689958e-14 523.979,2.48689958e-14 Z M506.383,26.809 C506.383,30.5716855 506.853329,33.8363195 507.794,36.603 C508.734671,39.3696805 510.007325,41.6659909 511.612,43.492 C513.216675,45.3180091 515.084156,46.6736622 517.2145,47.559 C519.344844,48.4443378 521.599655,48.887 523.979,48.887 C526.358345,48.887 528.58549,48.4443378 530.6605,47.559 C532.73551,46.6736622 534.561492,45.3180091 536.1385,43.492 C537.715508,41.6659909 538.960495,39.3696805 539.8735,36.603 C540.786505,33.8363195 541.243,30.5716855 541.243,26.809 C541.243,22.9909809 540.772671,19.6848473 539.832,16.8905 C538.891329,14.0961527 537.618675,11.8136755 536.014,10.043 C534.409325,8.27232448 532.541844,6.95817096 530.4115,6.1005 C528.281156,5.24282904 526.026345,4.814 523.647,4.814 C521.267655,4.814 519.04051,5.25666224 516.9655,6.142 C514.89049,7.02733776 513.064508,8.38299087 511.4875,10.209 C509.910492,12.0350091 508.665505,14.3313195 507.7525,17.098 C506.839495,19.8646805 506.383,23.1016481 506.383,26.809 Z" id="Shape"></path>
            <path d="M476.005,1.0658141e-14 C478.495012,1.0658141e-14 480.888155,0.22133112 483.1845,0.664 C485.480845,1.10666888 487.763322,1.85366141 490.032,2.905 L488.538,7.802 C486.158655,6.6953278 484.01451,5.92066888 482.1055,5.478 C480.19649,5.03533112 478.24601,4.814 476.254,4.814 C472.87865,4.814 470.167344,5.57482573 468.12,7.0965 C466.072656,8.61817427 465.049,10.7623195 465.049,13.529 C465.049,15.9636788 465.823659,17.8864929 467.373,19.2975 C468.922341,20.7085071 471.329317,21.9396614 474.594,22.991 L480.155,24.817 C484.415688,26.2556739 487.528157,28.2061544 489.4925,30.6685 C491.456843,33.1308456 492.439,35.9389842 492.439,39.093 C492.439,41.361678 492.010171,43.3951577 491.1525,45.1935 C490.294829,46.9918423 489.091341,48.5134938 487.542,49.7585 C485.992659,51.0035062 484.139011,51.9718299 481.981,52.6635 C479.822989,53.3551701 477.44368,53.701 474.843,53.701 C472.186987,53.701 469.544846,53.4520025 466.9165,52.954 C464.288154,52.4559975 461.646013,51.5983394 458.99,50.381 L460.567,45.484 C462.891012,46.6460058 465.173489,47.4898307 467.4145,48.0155 C469.655511,48.5411693 472.020988,48.804 474.511,48.804 C477.88635,48.804 480.694489,48.0570075 482.9355,46.563 C485.176511,45.0689925 486.297,42.7726822 486.297,39.674 C486.297,38.5673278 486.144835,37.5298382 485.8405,36.5615 C485.536165,35.5931618 484.996671,34.6940042 484.222,33.864 C483.447329,33.0339958 482.396007,32.2455037 481.068,31.4985 C479.739993,30.7514963 478.052344,30.0460033 476.005,29.382 L470.61,27.639 C467.123983,26.5323278 464.302011,24.913844 462.144,22.7835 C459.985989,20.653156 458.907,17.817351 458.907,14.276 C458.907,9.90464481 460.373319,6.43251286 463.306,3.8595 C466.238681,1.28648714 470.471639,1.0658141e-14 476.005,1.0658141e-14 Z" id="Path"></path>
            <polygon id="Path" points="420.81 0.664 451.52 0.664 451.52 5.561 426.786 5.561 426.786 23.489 449.362 23.489 449.362 28.386 426.786 28.386 426.786 48.057 451.769 48.057 451.769 52.954 420.81 52.954"></polygon>
            <path d="M376.986,0.664 L393.088,0.664 C395.799347,0.664 398.19249,1.03749627 400.2675,1.7845 C402.34251,2.53150373 404.07166,3.56899336 405.455,4.897 C406.83834,6.22500664 407.889663,7.81582407 408.609,9.6695 C409.328337,11.5231759 409.688,13.5566556 409.688,15.77 C409.688,17.76201 409.38367,19.5741585 408.775,21.2065 C408.16633,22.8388415 407.350172,24.2636606 406.3265,25.481 C405.302828,26.6983394 404.127007,27.7219958 402.799,28.552 C401.470993,29.3820041 400.087674,30.0459975 398.649,30.544 L412.842,52.954 L406.036,52.954 L393.088,31.623 L382.547,31.623 L382.547,52.954 L376.986,52.954 L376.986,0.664 Z M382.547,26.809 L390.515,26.809 C392.341009,26.809 394.042492,26.6015021 395.6195,26.1865 C397.196508,25.7714979 398.565994,25.1213378 399.728,24.236 C400.890006,23.3506622 401.802997,22.2301734 402.467,20.8745 C403.131003,19.5188266 403.463,17.9003427 403.463,16.019 C403.463,12.3669817 402.42551,9.69717511 400.3505,8.0095 C398.27549,6.3218249 395.218354,5.478 391.179,5.478 L382.547,5.478 L382.547,26.809 Z" id="Shape"></path>
            <polygon id="Path" points="317.724 0.664 331.668 25.398 345.695 0.664 352.335 0.664 334.49 31.042 334.49 52.954 328.514 52.954 328.514 31.042 311.001 0.664"></polygon>
            <path d="M272.821,0.664 L288.923,0.664 C291.634347,0.664 294.02749,1.03749627 296.1025,1.7845 C298.17751,2.53150373 299.90666,3.56899336 301.29,4.897 C302.67334,6.22500664 303.724663,7.81582407 304.444,9.6695 C305.163337,11.5231759 305.523,13.5566556 305.523,15.77 C305.523,17.76201 305.21867,19.5741585 304.61,21.2065 C304.00133,22.8388415 303.185172,24.2636606 302.1615,25.481 C301.137828,26.6983394 299.962007,27.7219958 298.634,28.552 C297.305993,29.3820041 295.922674,30.0459975 294.484,30.544 L308.677,52.954 L301.871,52.954 L288.923,31.623 L278.382,31.623 L278.382,52.954 L272.821,52.954 L272.821,0.664 Z M278.382,26.809 L286.35,26.809 C288.176009,26.809 289.877492,26.6015021 291.4545,26.1865 C293.031508,25.7714979 294.400994,25.1213378 295.563,24.236 C296.725006,23.3506622 297.637997,22.2301734 298.302,20.8745 C298.966003,19.5188266 299.298,17.9003427 299.298,16.019 C299.298,12.3669817 298.26051,9.69717511 296.1855,8.0095 C294.11049,6.3218249 291.053354,5.478 287.014,5.478 L278.382,5.478 L278.382,26.809 Z" id="Shape"></path>
            <polygon id="Path" points="231.819 0.664 262.529 0.664 262.529 5.561 237.795 5.561 237.795 23.489 260.371 23.489 260.371 28.386 237.795 28.386 237.795 48.057 262.778 48.057 262.778 52.954 231.819 52.954"></polygon>
            <path d="M185.256,0.664 L196.544,31.291 C197.429338,33.6150116 198.342329,36.0358207 199.283,38.5535 C200.223671,41.0711793 201.081329,43.4919884 201.856,45.816 L202.022,45.816 C202.852004,43.3259876 203.709662,40.8636788 204.595,38.429 C205.480338,35.9943212 206.365662,33.6150116 207.251,31.291 L218.705,0.664 L225.013,0.664 L204.678,52.954 L198.868,52.954 L178.865,0.664 L185.256,0.664 Z" id="Path"></path>
            <path d="M151.143,2.48689958e-14 C154.463017,2.48689958e-14 157.575485,0.5533278 160.4805,1.66 C163.385515,2.7666722 165.889323,4.4404888 167.992,6.6815 C170.094677,8.9225112 171.754661,11.7168166 172.972,15.0645 C174.189339,18.4121834 174.798,22.3269776 174.798,26.809 C174.798,31.1803552 174.175506,35.0398166 172.9305,38.3875 C171.685494,41.7351834 169.984011,44.543322 167.826,46.812 C165.667989,49.080678 163.122681,50.7959942 160.19,51.958 C157.257319,53.1200058 154.131017,53.701 150.811,53.701 C147.490983,53.701 144.378515,53.133839 141.4735,51.9995 C138.568485,50.865161 136.064677,49.1775112 133.962,46.9365 C131.859323,44.6954888 130.199339,41.9011834 128.982,38.5535 C127.764661,35.2058166 127.156,31.2910224 127.156,26.809 C127.156,22.4376448 127.778494,18.5920166 129.0235,15.272 C130.268506,11.9519834 131.969989,9.15767801 134.128,6.889 C136.286011,4.62032199 138.817485,2.90500581 141.7225,1.743 C144.627515,0.58099419 147.76765,2.48689958e-14 151.143,2.48689958e-14 Z M133.547,26.809 C133.547,30.5716855 134.017329,33.8363195 134.958,36.603 C135.898671,39.3696805 137.171325,41.6659909 138.776,43.492 C140.380675,45.3180091 142.248156,46.6736622 144.3785,47.559 C146.508844,48.4443378 148.763655,48.887 151.143,48.887 C153.522345,48.887 155.74949,48.4443378 157.8245,47.559 C159.89951,46.6736622 161.725492,45.3180091 163.3025,43.492 C164.879508,41.6659909 166.124495,39.3696805 167.0375,36.603 C167.950505,33.8363195 168.407,30.5716855 168.407,26.809 C168.407,22.9909809 167.936671,19.6848473 166.996,16.8905 C166.055329,14.0961527 164.782675,11.8136755 163.178,10.043 C161.573325,8.27232448 159.705844,6.95817096 157.5755,6.1005 C155.445156,5.24282904 153.190345,4.814 150.811,4.814 C148.431655,4.814 146.20451,5.25666224 144.1295,6.142 C142.05449,7.02733776 140.228508,8.38299087 138.6515,10.209 C137.074492,12.0350091 135.829505,14.3313195 134.9165,17.098 C134.003495,19.8646805 133.547,23.1016481 133.547,26.809 Z" id="Shape"></path>
            <path d="M107.07,48.804 C109.781347,48.804 112.036158,48.5550025 113.8345,48.057 C115.632842,47.5589975 117.334325,46.9226705 118.939,46.148 L120.35,50.962 C118.523991,51.8473378 116.518178,52.5251643 114.3325,52.9955 C112.146822,53.4658357 109.477016,53.701 106.323,53.701 C102.892316,53.701 99.669182,53.1200058 96.6535,51.958 C93.6378183,50.7959942 91.0095112,49.080678 88.7685,46.812 C86.5274888,44.543322 84.7568398,41.7490166 83.4565,38.429 C82.1561602,35.1089834 81.506,31.2633552 81.506,26.892 C81.506,22.631312 82.1284938,18.8271834 83.3735,15.4795 C84.6185062,12.1318166 86.3614888,9.30984482 88.6025,7.0135 C90.8435112,4.71715519 93.4856515,2.97417262 96.529,1.7845 C99.572349,0.594827385 102.892315,1.0658141e-14 106.489,1.0658141e-14 C109.753683,1.0658141e-14 112.464989,0.262830705 114.623,0.7885 C116.781011,1.31416929 118.772991,2.04732863 120.599,2.988 L119.188,7.636 C117.251324,6.69532863 115.383842,6.00366888 113.5855,5.561 C111.787158,5.11833112 109.726012,4.897 107.402,4.897 C104.80132,4.897 102.325178,5.31199585 99.9735,6.142 C97.6218216,6.97200415 95.5606755,8.27232448 93.79,10.043 C92.0193245,11.8136755 90.5945054,14.0961527 89.5155,16.8905 C88.4364946,19.6848473 87.897,23.0463137 87.897,26.975 C87.897,31.0143535 88.4364946,34.4173195 89.5155,37.184 C90.5945054,39.9506805 92.0331577,42.1916581 93.8315,43.907 C95.6298423,45.6223419 97.6771552,46.8673295 99.9735,47.642 C102.269845,48.4166705 104.635321,48.804 107.07,48.804 Z" id="Path"></path>
            <polygon id="Path" points="43.824 0.664 74.534 0.664 74.534 5.561 49.8 5.561 49.8 23.489 72.376 23.489 72.376 28.386 49.8 28.386 49.8 48.057 74.783 48.057 74.783 52.954 43.824 52.954"></polygon>
            <path d="M-3.55271368e-15,0.664 L16.102,0.664 C18.8133469,0.664 21.2064896,1.03749627 23.2815,1.7845 C25.3565104,2.53150373 27.0856597,3.56899336 28.469,4.897 C29.8523402,6.22500664 30.9036631,7.81582407 31.623,9.6695 C32.3423369,11.5231759 32.702,13.5566556 32.702,15.77 C32.702,17.76201 32.3976697,19.5741585 31.789,21.2065 C31.1803303,22.8388415 30.3641718,24.2636606 29.3405,25.481 C28.3168282,26.6983394 27.1410066,27.7219958 25.813,28.552 C24.4849934,29.3820041 23.1016739,30.0459975 21.663,30.544 L35.856,52.954 L29.05,52.954 L16.102,31.623 L5.561,31.623 L5.561,52.954 L-3.55271368e-15,52.954 L-3.55271368e-15,0.664 Z M5.561,26.809 L13.529,26.809 C15.3550091,26.809 17.0564921,26.6015021 18.6335,26.1865 C20.2105079,25.7714979 21.5799942,25.1213378 22.742,24.236 C23.9040058,23.3506622 24.8169967,22.2301734 25.481,20.8745 C26.1450033,19.5188266 26.477,17.9003427 26.477,16.019 C26.477,12.3669817 25.4395104,9.69717511 23.3645,8.0095 C21.2894896,6.3218249 18.2323535,5.478 14.193,5.478 L5.561,5.478 L5.561,26.809 Z" id="Shape"></path>
        </g>
        <g id="capacitype-logo--type" transform="translate(317.000000, 36.000000)" fill="#FFFFFF" fill-rule="nonzero">
            <polyline id="Path" points="837.45 5.861 911.02 5.861 911.02 24.951 858.77 24.951 858.77 44.74 904.752 44.74 904.752 63.82 858.77 63.82 858.77 84.305 911.716 84.305 911.716 103.395 837.446 103.395 837.446 5.855"></polyline>
            <path d="M744.36,5.861 L784.214,5.861 C807.481,5.861 821.554,19.658 821.554,39.587 L821.554,39.863 C821.554,62.433 803.999,74.143 782.121,74.143 L765.818,74.143 L765.818,103.403 L744.36,103.403 L744.36,5.863 M782.821,55.053 C793.548,55.053 799.82,48.641 799.82,40.284 L799.82,40.004 C799.82,30.39 793.132,25.234 782.401,25.234 L765.818,25.234 L765.818,55.053 L782.818,55.053" id="Shape"></path>
            <polyline id="Path" points="672.04 64.95 634.56 5.86 659.64 5.86 682.911 45.02 706.598 5.86 730.982 5.86 693.497 64.526 693.497 103.403 672.039 103.403 672.039 64.946"></polyline>
            <polyline id="Path" points="577 25.65 547.321 25.65 547.321 5.862 628.141 5.862 628.141 25.651 598.461 25.651 598.461 103.401 577.003 103.401 577.003 25.651"></polyline>
            <polyline id="Path" points="508.44 6.861 529.898 6.861 529.898 104.401 508.44 104.401 508.44 6.861"></polyline>
            <path d="M400.3,55.91 L400.3,55.634 C400.3,27.908 421.201,5.194 451.16,5.194 C469.552,5.194 480.559,11.322 489.617,20.244 L475.96,35.99 C468.435,29.161 460.774,24.98 451.02,24.98 C434.577,24.98 422.73,38.637 422.73,55.36 L422.73,55.636 C422.73,72.355 434.294,86.292 451.02,86.292 C462.167,86.292 468.995,81.833 476.656,74.869 L490.313,88.662 C480.283,99.389 469.133,106.081 450.323,106.081 C421.618,106.079 400.303,83.921 400.303,55.911" id="Path"></path>
            <path d="M334.25,6.16 L354.039,6.16 L395.838,104.4 L373.408,104.4 L364.49,82.522 L323.24,82.522 L314.322,104.4 L292.444,104.4 L334.247,6.16 M356.821,63.57 L343.861,31.937 L330.904,63.57 L356.821,63.57" id="Shape"></path>
            <path d="M217.47,6.861 L257.324,6.861 C280.591,6.861 294.664,20.658 294.664,40.587 L294.664,40.863 C294.664,63.433 277.108,75.143 255.231,75.143 L238.928,75.143 L238.928,104.403 L217.47,104.403 L217.47,6.863 M255.927,56.053 C266.658,56.053 272.927,49.641 272.927,41.284 L272.927,41.004 C272.927,31.39 266.239,26.234 255.508,26.234 L238.925,26.234 L238.925,56.053 L255.924,56.053" id="Shape"></path>
            <path d="M140.82,6.16 L160.609,6.16 L202.408,104.4 L179.978,104.4 L171.06,82.522 L129.81,82.522 L120.892,104.4 L99.016,104.4 L140.817,6.16 M163.391,63.57 L150.431,31.937 L137.474,63.57 L163.391,63.57" id="Shape"></path>
            <path d="M0.22,50.91 L0.22,50.634 C0.22,22.908 21.121,0.194 51.079,0.194 C69.473,0.194 80.48,6.322 89.538,15.244 L75.881,30.99 C68.358,24.161 60.693,19.98 50.941,19.98 C34.498,19.98 22.651,33.637 22.651,50.36 L22.651,50.636 C22.651,67.355 34.217,81.292 50.941,81.292 C62.088,81.292 68.914,76.833 76.58,69.869 L90.235,83.662 C80.205,94.389 69.055,101.081 50.245,101.081 C21.54,101.079 0.225,78.921 0.225,50.911" id="Path"></path>
        </g>
        <g id="capacitype-logo--mark" fill-rule="nonzero">
            <path d="M239.59,119.7 C239.59,53.769 186.15,0.33 120.22,0.33 C54.293,0.33 0.85,53.77 0.85,119.7 C0.85,185.623 54.29,239.06 120.22,239.06 C186.147,239.06 239.59,185.62 239.59,119.7" id="capacitype-logo--mark--circle" fill="#6A246A"></path>
            <path d="M71.68,121.98 L71.68,121.7 C71.68,93.97 92.581,71.26 122.539,71.26 C140.933,71.26 151.94,77.392 160.998,86.31 L147.341,102.052 C139.818,95.228 132.153,91.042 122.401,91.042 C105.958,91.042 94.111,104.695 94.111,121.417 L94.111,121.697 C94.111,138.416 105.677,152.349 122.401,152.349 C133.548,152.349 140.375,147.89 148.04,140.926 L161.695,154.719 C151.665,165.446 140.515,172.138 121.705,172.138 C93,172.139 71.685,149.978 71.685,121.978" id="capacitype-logo--mark--C" fill="#FFFFFF"></path>
        </g>
    </g>
</svg>